<svg xmlns="http://www.w3.org/2000/svg" width="35.824" height="38.299" viewBox="0 0 35.824 38.299">
  <g id="Group_1950" data-name="Group 1950" transform="translate(-3.717 -1.625)">
    <path id="Path_2432" data-name="Path 2432" d="M4.085,35.033a.427.427,0,0,0,.076.007.444.444,0,0,0,.436-.368,33.687,33.687,0,0,1,1.765-6.117c.76.456,2.522,1.517,3.134,1.883a66.437,66.437,0,0,1-2.068,8.985l-.782-.449a.442.442,0,0,0-.456.757c.055.193.114.4.157.543a8.307,8.307,0,0,0,1.681.9.79.79,0,0,0,.253-.452c.5.316,1.006.757,1.509,1.073-.741.764.363,3.372,2.025,2.95a1.947,1.947,0,0,0,2.47,2.133,2.051,2.051,0,0,0,2.7,1.934,2.214,2.214,0,0,0,3.507,1.2c.083-.064.162-.117.241-.172a4.529,4.529,0,0,0,3.045-.276,1.911,1.911,0,0,0,2.58-1.346,1.848,1.848,0,0,0,1.628-.037A1.9,1.9,0,0,0,29,46.866a1.82,1.82,0,0,0,1.587-.331,2.038,2.038,0,0,0,.712-1.584c1.574-.871,3.115-1.715,4.689-2.585-.015.128.248.3.378.326a6.162,6.162,0,0,0,1.566-.609l.351-.846c.017,0,.032-.013.049-.018a.444.444,0,0,0-.242-.854,6.473,6.473,0,0,0-1.449.625,19.974,19.974,0,0,1-3.81-8.56,26.922,26.922,0,0,0,3.143-1.449c.875,1.888,1.912,4.153,2.709,6.306a.443.443,0,0,0,.416.29.436.436,0,0,0,.154-.028.443.443,0,0,0,.262-.57c-.869-2.348-2.013-4.812-2.932-6.793a.443.443,0,0,0-.609-.206,20.421,20.421,0,0,1-3.657,1.676.432.432,0,0,0-.372.581.437.437,0,0,0-.016.171,7.2,7.2,0,0,1-4.706.4c-1.3-.341-2.6-1.039-4.03-.786a7.331,7.331,0,0,0-1.428.422c-2.8-1.7-6.7.454-8.8-.706-.707-.4-1.488-.807-2.531-1.357a.489.489,0,0,0-.388-.652c-3.919-2.342-3.764-2.347-4.052-2.246a.444.444,0,0,0-.267.258,35.632,35.632,0,0,0-2,6.777A.443.443,0,0,0,4.085,35.033Zm18.8,13.716a1.951,1.951,0,0,1-1.2.153,2.518,2.518,0,0,1-1.183-.768,6.993,6.993,0,0,0,.332-.966C22.2,48.19,21.566,47.675,22.889,48.749Zm-2.9-1.968a1.772,1.772,0,0,1-.188.7,2.679,2.679,0,0,0-.263,1.06,1.639,1.639,0,0,0,.073.657,1.721,1.721,0,0,1-1.81-1.057,17.819,17.819,0,0,0,1.506-1.963A.7.7,0,0,1,19.991,46.781ZM18.7,45.465c0,.011,0,.022,0,.033a16.941,16.941,0,0,1-1.585,2.082.432.432,0,0,0-.1.039,1,1,0,0,1-1.54-.5,2.75,2.75,0,0,1-.037-.925,18.508,18.508,0,0,1,1.766-2.119.418.418,0,0,0,.024-.04,1.872,1.872,0,0,1,.8.1A1.305,1.305,0,0,1,18.7,45.465Zm-3.981.226a1.429,1.429,0,0,1-1.436-.23,1.323,1.323,0,0,1-.358-1.4c.984-.879,1.691-1.944,2.694-1.452a1.421,1.421,0,0,1,.757.968.422.422,0,0,0,.012.082C15.971,44.164,14.842,45.536,14.722,45.691Zm-2.053-2.615s0,.007,0,.01c-.154.153-.3.293-.445.411A1.082,1.082,0,0,1,11,43.045a1,1,0,0,1,.313-1.257h.01C12.263,41.67,12.892,42.663,12.669,43.076ZM27,33.669a8.1,8.1,0,0,0,5.1-.366,21.14,21.14,0,0,0,3.483,7.744,17.288,17.288,0,0,0-4.888,2.528c-.312-.663-.386-.7-3.737-3.982a20.283,20.283,0,0,0-3.931-3.22.456.456,0,0,0,.443-.43.444.444,0,0,0-.433-.455,4.1,4.1,0,0,0-2.525,1.056c-.719.735-1.135,1.663-1.856,2.3a1.048,1.048,0,0,0-1.56-1.26,6.541,6.541,0,0,1,3.168-3.426C24.139,32.088,24.17,32.934,27,33.669ZM12.53,32.516c2.3,1.268,5.527-.519,8.172.411a8.892,8.892,0,0,0-3.286,2.387,6.185,6.185,0,0,0-1.372,2.76,2.4,2.4,0,0,0,.251,1.557,1.64,1.64,0,0,0,1.943.492c1.46-.524,2.034-2.068,2.9-2.959a2.519,2.519,0,0,1,.628-.434c2.572,1.126,4.936,3.96,7.1,6.005a3.142,3.142,0,0,1,1.17,1.7.885.885,0,0,1-.953,1.1,3.027,3.027,0,0,1-1.5-.968,36.946,36.946,0,0,1-3.063-3.052.444.444,0,1,0-.677.574,37.236,37.236,0,0,0,3.13,3.123,6.271,6.271,0,0,0,1.062.862,1.486,1.486,0,0,1-1.9.96c-.591-.2-.816-.492-3.49-3.139a.444.444,0,1,0-.624.631c2.447,2.416,2.709,2.737,3.288,3.088a1.056,1.056,0,0,1-1.032.851,1.842,1.842,0,0,1-1.015-.56c-.878-.747-1.883-1.385-2.734-2.109a.439.439,0,0,0-.159-.086,1.617,1.617,0,0,0-.773-.39,2.18,2.18,0,0,0-1.23-2.014,2.7,2.7,0,0,0-1.178-.161,2.408,2.408,0,0,0-1.176-1.338,2.194,2.194,0,0,0-2.525.5,2.148,2.148,0,0,0-2.28-1.4.424.424,0,0,0-.079.027.435.435,0,0,0-.151.029A20.724,20.724,0,0,0,8.41,39.3a65.858,65.858,0,0,0,1.829-8.011C11.1,31.741,11.841,32.129,12.53,32.516Z" transform="translate(0 -10.552)" fill="#335f32"/>
    <path id="Path_2433" data-name="Path 2433" d="M36.567,23.957c-.542-.205-1.318.648-.891,1.37a.95.95,0,0,0,.825.446.9.9,0,0,0,.888-1.161C37.3,24.306,36.84,23.9,36.567,23.957Zm-.124.928a.1.1,0,0,1,.04-.075l.016,0,.012,0c.016.011.032.058.034.066A.208.208,0,0,1,36.443,24.884Zm-28.3,4.571h.008A.939.939,0,0,0,9.1,28.368a.9.9,0,0,0-1.212-.75l-.013.005c-.54-.048-1,.935-.463,1.521A.981.981,0,0,0,8.141,29.455Zm.074-.945c0,.011,0,.023,0,.037a.115.115,0,0,1-.07.021A.43.43,0,0,0,8.215,28.51ZM23.73,18.961a8.961,8.961,0,0,0,4.8-9.781.444.444,0,0,0-.436-.359.266.266,0,0,0-.043,0,5.921,5.921,0,0,1-4.2-1.759.444.444,0,0,0-.669.034A4.7,4.7,0,0,1,19.1,8.836a.445.445,0,0,0-.48.36,9.277,9.277,0,0,0,4.689,9.762.444.444,0,0,0,.417,0Zm-4.3-9.218a5.644,5.644,0,0,0,4.123-1.729A6.745,6.745,0,0,0,27.72,9.7a8.055,8.055,0,0,1-4.191,8.361A8.4,8.4,0,0,1,19.435,9.743Z" transform="translate(-1.412 -2.166)" fill="#335f32"/>
    <path id="Path_2434" data-name="Path 2434" d="M36.922,4.711A.44.44,0,0,0,36.63,4.6a9.547,9.547,0,0,1-6.844-2.837.444.444,0,0,0-.669.034A7.636,7.636,0,0,1,22.5,4.62a.443.443,0,0,0-.48.36,14.306,14.306,0,0,0,7.23,15.049.433.433,0,0,0,.049.012,1.411,1.411,0,0,0,1.407.189A13.708,13.708,0,0,0,38.186,5.994a.858.858,0,0,0-.235-.475A5.51,5.51,0,0,0,36.922,4.711Zm-14.1.821A8.592,8.592,0,0,0,29.5,2.722a10.5,10.5,0,0,0,6.761,2.759,12.9,12.9,0,0,1-6.8,13.654A13.433,13.433,0,0,1,22.823,5.532Z" transform="translate(-7.382)" fill="#335f32"/>
    <path id="Path_2435" data-name="Path 2435" d="M35.752,14.4a.444.444,0,0,0-.625-.055L32.573,16.48,31.8,15.42a.444.444,0,1,0-.717.523c1.046,1.361,1.029,1.582,1.357,1.623a.444.444,0,0,0,.339-.1L35.7,15.024A.444.444,0,0,0,35.752,14.4Z" transform="translate(-11.145 -5.153)" fill="#335f32"/>
  </g>
</svg>
