<svg xmlns="http://www.w3.org/2000/svg" width="61.833" height="61.833" viewBox="0 0 61.833 61.833">
  <path id="Path_2553" data-name="Path 2553" d="M30.187,18.1a1.251,1.251,0,0,1,.271-.94,1.313,1.313,0,0,1,1.8-.218c.021.016.036.036.056.053a1.285,1.285,0,0,1-.855,2.253,1.248,1.248,0,0,1-.727-.243c-.019-.015-.041-.026-.059-.041A1.266,1.266,0,0,1,30.187,18.1ZM71.5,36.719v21.9a1.289,1.289,0,1,1-2.577,0V38.006H54.753v14.17a1.289,1.289,0,1,1-2.577,0V38.006H49.6v14.17a1.288,1.288,0,1,1-2.576,0V38.006H34.142v14.17a1.288,1.288,0,1,1-2.576,0V38.006H28.989v14.17a1.289,1.289,0,0,1-2.577,0V38.006H12.243V58.617a1.288,1.288,0,1,1-2.576,0v-21.9a1.288,1.288,0,0,1,1.289-1.289H26.134l.279-.127V25.125A1.288,1.288,0,0,1,27.7,23.837h.066a12.661,12.661,0,0,1,.244-1.546,1.322,1.322,0,0,1,1.545-.979c.025.005.047.017.071.024a1.285,1.285,0,0,1,.9,1.522c-.064.322-.128.644-.167.98H50.811a10.337,10.337,0,0,0-10.228-9.018,10.193,10.193,0,0,0-4.572,1.069,1.324,1.324,0,0,1-1.7-.513c-.014-.023-.031-.043-.043-.067a1.391,1.391,0,0,1-.064-.992,1.31,1.31,0,0,1,.657-.734A12.812,12.812,0,0,1,39.3,12.311V10.954a1.288,1.288,0,0,1,2.576,0v1.352A12.913,12.913,0,0,1,53.4,23.835h.065a1.287,1.287,0,0,1,1.288,1.289V35.3l.279.127H70.211A1.288,1.288,0,0,1,71.5,36.719Zm-42.51-2.586L40.05,29.1a1.283,1.283,0,0,1,1.067,0l11.06,5.028v-7.72H28.989Zm19.322,1.3h.494l-8.223-3.738L32.36,35.43ZM36.718,52.176a1.288,1.288,0,1,0,2.576,0V49.6a1.288,1.288,0,0,1,2.576,0v2.576a1.288,1.288,0,1,0,2.576,0V49.6a3.864,3.864,0,1,0-7.729,0ZM16.107,48.312a1.289,1.289,0,1,0-1.289-1.289A1.293,1.293,0,0,0,16.107,48.312Zm0,5.153a1.288,1.288,0,1,0-1.289-1.289A1.293,1.293,0,0,0,16.107,53.465Zm0-10.306a1.288,1.288,0,1,0-1.289-1.288A1.292,1.292,0,0,0,16.107,43.159Zm5.153,10.306a1.288,1.288,0,1,0-1.288-1.289A1.293,1.293,0,0,0,21.261,53.465Zm0-5.153a1.289,1.289,0,1,0-1.288-1.289A1.293,1.293,0,0,0,21.261,48.312Zm0-5.153a1.288,1.288,0,1,0-1.288-1.288,1.292,1.292,0,0,0,1.288,1.288Zm38.645,5.153a1.289,1.289,0,1,0-1.289-1.289,1.292,1.292,0,0,0,1.289,1.289Zm0,5.153a1.288,1.288,0,1,0-1.289-1.289A1.292,1.292,0,0,0,59.906,53.465Zm0-10.306a1.288,1.288,0,1,0-1.289-1.288A1.292,1.292,0,0,0,59.906,43.159Zm5.153,0a1.288,1.288,0,1,0-1.289-1.288A1.292,1.292,0,0,0,65.058,43.159Zm0,10.306a1.288,1.288,0,1,0-1.289-1.289A1.292,1.292,0,0,0,65.058,53.465Zm0-5.153a1.289,1.289,0,1,0-1.289-1.289A1.292,1.292,0,0,0,65.058,48.312Zm-21.9-5.153a1.288,1.288,0,0,0,0-2.576H38.006a1.288,1.288,0,0,0,0,2.576Zm28.2,26.476A1.287,1.287,0,0,1,70.211,71.5H10.955A1.289,1.289,0,0,1,9.8,69.635l6.44-12.881c.008-.015.021-.025.028-.04s.016-.042.028-.062a1.243,1.243,0,0,1,.107-.131c.014-.016.026-.034.04-.049l0-.005a1.282,1.282,0,0,1,.945-.425H30.277a1.287,1.287,0,0,1,1.152.712l.78,1.56.78-1.56c.008-.015.021-.025.028-.04s.016-.042.028-.062a1.284,1.284,0,0,1,.146-.18l0-.005a1.282,1.282,0,0,1,.945-.425H47.023a1.287,1.287,0,0,1,1.152.712l.78,1.56.78-1.56c.008-.015.02-.025.028-.04s.016-.042.028-.062a1.34,1.34,0,0,1,.146-.18,1.284,1.284,0,0,1,.949-.43H63.769a1.318,1.318,0,0,1,1.153.712l6.442,12.881ZM55.048,68.529l-4.16-8.319-.491.983-.72,1.44-.721,1.44-2.425,4.848H49.6V67.634a1.289,1.289,0,0,1,2.577,0v1.288h3.068l-.2-.393Zm-11.4.394,3.865-7.729-1.289-2.576h-10l2.448,4.9,2.7,5.409Zm-5.3-.3L34.142,60.21l-.491.983-.721,1.44-.72,1.44-2.424,4.848h3.068V67.634a1.288,1.288,0,0,1,2.576,0v1.288H38.5l-.151-.3Zm-11.443.3,3.865-7.729-1.289-2.576h-10l5.153,10.305H26.9Zm-5.153,0L17.4,60.21,13.04,68.923h3.068V67.635a1.288,1.288,0,0,1,2.576,0v1.288h3.068Zm46.375,0L62.973,58.617h-10l2.448,4.9,2.7,5.409Z" transform="translate(-9.667 -9.666)" fill="#335f32"/>
</svg>
