<svg id="viber" xmlns="http://www.w3.org/2000/svg" width="116.365" height="54.505" viewBox="0 0 116.365 54.505">
  <path id="Path_2427" data-name="Path 2427" d="M59.593,46.675c-8.082.091-16.891-.091-25.7-.636a2.338,2.338,0,0,0-2,.908c-2.27,2.544-4.541,5.087-6.9,7.628-.363.363-.727,1.09-1.362.817s-.363-1-.363-1.544c0-2.089-.091-4.268,0-6.357.091-1.635-.272-2.452-2.18-2.452a44.7,44.7,0,0,1-6.9-.817C6.375,42.407,1.108,38.14.381,29.239a45.275,45.275,0,0,1,0-11.624C1.653,9.623,6.284,5.082,14.276,3.72A238.894,238.894,0,0,1,49.331,1c12.26-.182,24.52.182,36.78.817a115.468,115.468,0,0,1,17.618,2.27,15.191,15.191,0,0,1,12.351,14.076,52.564,52.564,0,0,1-.183,12.532,14.523,14.523,0,0,1-8.989,11.714,43.123,43.123,0,0,1-13.9,2.906C82.025,46.13,71.218,46.766,59.593,46.675Z" transform="translate(0 -0.949)" fill="#919191"/>
  <path id="Path_2428" data-name="Path 2428" d="M30.91,36.041A4.984,4.984,0,0,0,35,32.953c.545-1.453-.545-2.089-1.453-2.815-.636-.545-1.362-1-2-1.453-1.362-1-2.634-1-3.633.545a1.538,1.538,0,0,1-2.18.545,10.268,10.268,0,0,1-5.177-4.995,1.96,1.96,0,0,1,.636-2.724,1.828,1.828,0,0,0,1.09-1.725c-.091-1.09-2.724-4.813-3.814-5.176a1.771,1.771,0,0,0-1.362,0c-2.452.817-3.542,2.906-2.543,5.267A27.532,27.532,0,0,0,29.82,35.769c.454.182.908.182,1.09.272ZM25.642,14.7c-.363.091-1.181-.272-1.181.545,0,.545.636.454,1.09.545,5.177.817,7.629,3.269,8.264,8.537.091.454-.091,1.181.545,1.271.727,0,.545-.727.545-1.181A9.893,9.893,0,0,0,25.642,14.7ZM63.331,25.416V17.7c0-1.544.546-2.815,2.27-2.815,1.635,0,2.089,1.181,2.089,2.724v1c0,2.361,0,2.361,2.18,1.725a6.069,6.069,0,0,1,7.356,3,9.506,9.506,0,0,1,0,9.808,6.09,6.09,0,0,1-8.808,2.27c-.546-.363-.727-.545-1.182.091a1.976,1.976,0,0,1-2.634.545,2.374,2.374,0,0,1-1.271-2.452V25.416Zm10.807,2.815c0-2.452-1.362-4.268-3.179-4.359-1.907-.091-3.36,1.635-3.36,4.087,0,2.362,1.362,4.268,3.179,4.359,1.907.182,3.36-1.635,3.36-4.087Zm-27.154.091c1.453-3.814,2.634-6.993,3.814-10.262a12.128,12.128,0,0,1,.636-1.635c.545-1.271,1.453-2,2.906-1.453,1.544.545,1.726,1.725,1.271,3.179-1.453,3.814-3,7.628-4.45,11.534-.636,1.635-1.271,3.269-1.907,4.813a2.444,2.444,0,0,1-2.089,1.725,2.254,2.254,0,0,1-2.27-1.816c-2.089-5.358-4.268-10.807-6.357-16.165-.545-1.453-.272-2.724,1.362-3.269s2.361.454,2.906,1.816c1.271,3.633,2.634,7.265,4.178,11.534Zm41.594,1.271H84.673c-1,0-1.09.454-.636,1.181.817,1.544,3.179,2.18,5.177,1.453a21.824,21.824,0,0,0,2.089-1,1.719,1.719,0,0,1,2.544.545,1.761,1.761,0,0,1-.636,2.634c-2.907,2-6.086,2.634-9.355,1.271-3.179-1.362-4.541-4.087-4.541-7.447a7.905,7.905,0,0,1,6.811-8.264,7.67,7.67,0,0,1,8.264,6.448c.454,2.27-.182,3.088-2.543,3.179Zm-1.907-2.906a5.133,5.133,0,0,0,1.181,0c.727-.091,1.816.454,2-.363.272-1.09-.636-1.907-1.544-2.361a2.891,2.891,0,0,0-3.541.454c-.546.545-1.182,1.181-.908,2,.272.727,1.089.272,1.725.363C85.944,26.778,86.307,26.687,86.671,26.687Z" transform="translate(-1.304 -2.211)" fill="#fff"/>
  <path id="Path_2429" data-name="Path 2429" d="M30.908,36.041a9.781,9.781,0,0,1-1.09-.272A27.259,27.259,0,0,1,14.561,20.421c-1-2.452,0-4.45,2.543-5.267a1.771,1.771,0,0,1,1.362,0c1.09.363,3.723,4.087,3.814,5.176.091.817-.545,1.271-1.09,1.725-1.09.727-1.09,1.635-.636,2.724a9.607,9.607,0,0,0,5.177,4.995,1.538,1.538,0,0,0,2.18-.545c1-1.544,2.27-1.453,3.633-.545a16.06,16.06,0,0,1,2,1.453c.908.727,2,1.271,1.453,2.815a4.982,4.982,0,0,1-4.087,3.088Zm64.933-8.083V22.51a2.2,2.2,0,0,1,1.271-2.18,2.055,2.055,0,0,1,2.634.454c.545.817.816.454,1.271,0a3.088,3.088,0,0,1,2.362-.727,2.027,2.027,0,0,1,1.816,1.725c.181,1-.182,1.816-1,2-3.723.908-4.268,3.451-3.905,6.719a14.512,14.512,0,0,1-.091,3.452,2.182,2.182,0,1,1-4.36-.182c0-1.816,0-3.814,0-5.812Zm-38.688.727V23.509c0-1.453.636-2.361,2.18-2.361,1.453,0,2.089.908,2.089,2.27V33.862c0,1.454-.727,2.362-2.18,2.362-1.453-.092-2.089-1-2.089-2.452ZM25.641,14.7A9.893,9.893,0,0,1,34.9,24.417c0,.454.182,1.181-.545,1.181s-.545-.727-.545-1.271c-.636-5.267-3.088-7.719-8.264-8.537-.454-.091-1.09,0-1.09-.545.091-.817.817-.454,1.181-.545Zm36.145,2.634c-.181,1.362-.816,2.27-2.27,2.361a2.313,2.313,0,0,1-2.452-2.361,2.441,2.441,0,0,1,2.452-2.452A2.546,2.546,0,0,1,61.786,17.333Z" transform="translate(-1.302 -2.211)" fill="#fff"/>
  <path id="Path_2430" data-name="Path 2430" d="M33.474,23.763c-.091.363.182,1-.454,1.09-.817.091-.636-.636-.727-1.09-.545-3.179-1.635-4.359-4.9-5.086-.454-.091-1.181,0-1.09-.727s.817-.454,1.271-.363a6.523,6.523,0,0,1,5.9,6.175Z" transform="translate(-2.415 -2.465)" fill="#fff"/>
  <path id="Path_2431" data-name="Path 2431" d="M31.092,23.487c0,.363,0,.817-.545.908-.363,0-.545-.272-.636-.636a2.228,2.228,0,0,0-2.18-2.27c-.363-.091-.817-.182-.636-.727.091-.363.454-.363.817-.363A3.333,3.333,0,0,1,31.092,23.487Z" transform="translate(-2.485 -2.735)" fill="#fff"/>
</svg>
