<svg xmlns="http://www.w3.org/2000/svg" width="57.497" height="57.497" viewBox="0 0 57.497 57.497">
  <g id="vimeo" transform="translate(0 0.001)">
    <path id="Path_2417" data-name="Path 2417" d="M28.749,0A28.748,28.748,0,1,0,57.5,28.748,28.748,28.748,0,0,0,28.749,0Z" transform="translate(0 -0.001)" fill="#919191"/>
    <path id="Path_2418" data-name="Path 2418" d="M8.247,18.563s2.733-2.154,3.644-1.078,4.388,14.08,5.549,16.478c1.013,2.1,3.807,4.884,6.871,2.9S37.558,26.18,39.382,15.911,27.126,7.8,25.635,16.739c3.728-2.237,5.717.909,3.809,4.472s-3.644,5.881-4.555,5.881-1.608-2.383-2.65-6.546c-1.076-4.3-1.071-12.056-5.547-11.178-4.222.828-9.771,7.455-9.771,7.455l1.326,1.739Z" transform="translate(5.515 7.232)" fill="#fff"/>
  </g>
</svg>
